<svg width="24" height="24" viewBox="0 0 24 24" fill="none" xmlns="http://www.w3.org/2000/svg">
<rect x="2.25" y="2.25" width="19.5" height="19.5" rx="4.75" stroke="#252B2B" stroke-width="0.5"/>
<path d="M19.7861 17.6139L14.3461 12.1739L14.1339 12.3861L19.5662 17.8183C19.5148 17.8388 19.4587 17.85 19.4 17.85H4.6C4.52009 17.85 4.44504 17.8292 4.37999 17.7926L9.86529 12.3868L9.65471 12.1732L4.18188 17.5667C4.16131 17.5151 4.15 17.4589 4.15 17.4V7.6C4.15 7.35147 4.35147 7.15 4.6 7.15H19.4C19.6485 7.15 19.85 7.35147 19.85 7.6V17.4C19.85 17.5792 19.7453 17.7339 19.5937 17.8063L19.7861 17.6139Z" stroke="#242C2B" stroke-width="0.3"/>
<path d="M4.24001 7.28L11.8687 13.8863C11.944 13.9515 12.0558 13.9514 12.131 13.886L19.72 7.28" stroke="#242C2B" stroke-width="0.5"/>
</svg>
