<svg width="24" height="24" viewBox="0 0 24 24" fill="none" xmlns="http://www.w3.org/2000/svg">
<g clip-path="url(#clip0_26_7)">
<path fill-rule="evenodd" clip-rule="evenodd" d="M16.4455 10.6291L19.2392 4.26553C19.3032 4.26891 19.3639 4.27336 19.4217 4.27894L16.5457 10.6747L16.4455 10.6291ZM16.8188 10.7989L19.7299 4.32507C19.9928 4.38136 20.1974 4.47732 20.3997 4.63264L17.5771 11.1439L17.5145 11.1154C17.3464 11.0235 17.1802 10.9479 17.0044 10.8833L16.8188 10.7989ZM16.0682 10.7423L16.1724 10.5049L19.3206 3.33401C20.3643 3.16142 20.8167 3.3672 21.3866 4.27385L18.2384 11.4447L18.1178 11.7194L18.1079 11.7149C18.0957 11.7359 18.0794 11.7551 18.0588 11.7714L17.3 12.3715L17.1663 12.4773L16.6111 12.9165C16.49 13.0123 16.3108 12.9406 16.2892 12.7877L16.1854 12.0541L16.1608 11.8801L16.0222 10.9001C16.0136 10.8398 16.0326 10.7835 16.0682 10.7423ZM16.8921 11.1618C16.7223 11.1 16.5424 11.0491 16.3397 11.0036L16.4577 11.8379L16.4588 11.8452L17.1209 12.1308L17.7644 11.6218C17.6305 11.5307 17.5039 11.452 17.3789 11.3832L16.8921 11.1618ZM17.8502 11.2681L20.6365 4.84056C20.6756 4.87883 20.7154 4.91961 20.7564 4.96307L17.9653 11.3205L17.8502 11.2681ZM20.678 4.47342C20.7472 4.53238 20.8162 4.59704 20.8861 4.6676L21.0477 4.2995C20.813 3.95071 20.6186 3.7685 20.4107 3.67391C20.2027 3.57931 19.9397 3.55348 19.5279 3.60811L19.3681 3.97196C19.4729 3.98004 19.5713 3.9914 19.6644 4.00665C20.0758 4.07407 20.3765 4.2166 20.678 4.47342ZM16.5617 12.5731L16.508 12.1933L16.8535 12.3423L16.5617 12.5731Z" fill="#242C2B"/>
<path d="M2.61733 21.6021C2.97479 21.5369 3.25539 21.2215 3.492 20.9582C4.21712 20.1514 4.48643 19.0456 4.95427 18.0779C5.16278 17.6466 5.39398 17.2246 5.56827 16.7766C5.58133 16.743 5.62306 16.5712 5.67141 16.6645C5.82345 16.9578 5.78923 17.3233 5.82019 17.6401C5.83109 17.7516 5.81351 17.7827 5.87835 17.7048C6.11722 17.4178 6.3876 17.0931 6.66169 16.8426C6.69851 16.809 6.76643 16.7055 6.82147 16.7023C6.89988 16.6977 6.94917 17.0636 6.96076 17.1271C6.96421 17.146 6.9797 17.2918 7.00824 17.2745C7.10988 17.2131 7.18422 17.0308 7.26593 16.9369C7.38977 16.7946 7.55946 16.5616 7.77105 16.5631C7.97145 16.5646 8.07991 16.938 8.26877 17.0051C8.72054 17.1655 9.21441 16.8559 9.55396 16.5698C10.06 16.1432 10.4683 15.5993 10.8739 15.0733C11.0211 14.8824 11.1841 14.696 11.3174 14.4937C11.3382 14.4623 11.4447 14.2776 11.3378 14.3608C11.1617 14.4981 11.0214 14.7307 10.9331 14.9369C10.7772 15.3011 10.7891 15.7178 10.8543 16.1137C10.8705 16.2123 10.8902 16.3105 10.9081 16.4089C10.9166 16.4556 10.916 16.3619 10.9172 16.3552C10.9463 16.1933 11.0377 16.0333 11.1182 15.8952C11.198 15.7582 11.3625 15.4832 11.5206 15.7016C11.5856 15.7914 11.6069 15.9375 11.6078 16.048C11.6085 16.1343 11.5664 16.2229 11.5679 16.2903C11.5712 16.4394 11.7773 16.4216 11.8794 16.4451C12.2894 16.5399 12.7453 16.4703 13.1411 16.3423C13.4017 16.2581 13.6391 16.1028 13.866 15.95C14.4684 15.5442 15.0153 15.0724 15.4817 14.5037C15.668 14.2765 15.8264 14.0397 15.9854 13.7929C16.0173 13.7435 16.0418 13.7258 16.031 13.6662" stroke="#242C2B" stroke-width="0.3" stroke-linecap="round"/>
</g>
<defs>
<clipPath id="clip0_26_7">
<rect width="24" height="24" fill="white"/>
</clipPath>
</defs>
</svg>
